<svg width="54" height="54" viewBox="0 0 54 54" fill="none" xmlns="http://www.w3.org/2000/svg">
<g clip-path="url(#clip0_3199_9474)">
<path d="M48.9375 0.84375H5.0625C3.94403 0.84509 2.87175 1.28999 2.08087 2.08087C1.28999 2.87175 0.84509 3.94403 0.84375 5.0625V48.9375C0.84509 50.056 1.28999 51.1282 2.08087 51.9191C2.87175 52.71 3.94403 53.1549 5.0625 53.1562H48.9375C50.056 53.1549 51.1282 52.71 51.9191 51.9191C52.71 51.1282 53.1549 50.056 53.1562 48.9375V5.0625C53.1549 3.94403 52.71 2.87175 51.9191 2.08087C51.1282 1.28999 50.056 0.84509 48.9375 0.84375ZM5.0625 2.53125H48.9375C49.6088 2.53125 50.2527 2.79793 50.7274 3.27264C51.2021 3.74734 51.4688 4.39117 51.4688 5.0625V10.9688H2.53125V5.0625C2.53125 4.39117 2.79793 3.74734 3.27264 3.27264C3.74734 2.79793 4.39117 2.53125 5.0625 2.53125ZM48.9375 51.4688H5.0625C4.39117 51.4688 3.74734 51.2021 3.27264 50.7274C2.79793 50.2527 2.53125 49.6088 2.53125 48.9375V12.6562H51.4688V48.9375C51.4688 49.6088 51.2021 50.2527 50.7274 50.7274C50.2527 51.2021 49.6088 51.4688 48.9375 51.4688Z" fill="#38BAEB"/>
<path d="M6.75 9.28125H27C27.6713 9.28125 28.3152 9.01457 28.7899 8.53986C29.2646 8.06516 29.5312 7.42133 29.5312 6.75C29.5312 6.07867 29.2646 5.43484 28.7899 4.96014C28.3152 4.48543 27.6713 4.21875 27 4.21875H6.75C6.07867 4.21875 5.43484 4.48543 4.96014 4.96014C4.48543 5.43484 4.21875 6.07867 4.21875 6.75C4.21875 7.42133 4.48543 8.06516 4.96014 8.53986C5.43484 9.01457 6.07867 9.28125 6.75 9.28125ZM6.75 5.90625H27C27.2238 5.90625 27.4384 5.99514 27.5966 6.15338C27.7549 6.31161 27.8438 6.52622 27.8438 6.75C27.8438 6.97378 27.7549 7.18839 27.5966 7.34662C27.4384 7.50485 27.2238 7.59375 27 7.59375H6.75C6.52622 7.59375 6.31161 7.50485 6.15338 7.34662C5.99514 7.18839 5.90625 6.97378 5.90625 6.75C5.90625 6.52622 5.99514 6.31161 6.15338 6.15338C6.31161 5.99514 6.52622 5.90625 6.75 5.90625Z" fill="#38BAEB"/>
<path d="M33.75 9.28125C34.2506 9.28125 34.74 9.1328 35.1563 8.85466C35.5725 8.57652 35.897 8.18119 36.0886 7.71867C36.2802 7.25614 36.3303 6.74719 36.2326 6.25618C36.1349 5.76516 35.8939 5.31414 35.5399 4.96014C35.1859 4.60614 34.7348 4.36506 34.2438 4.26739C33.7528 4.16972 33.2439 4.21985 32.7813 4.41143C32.3188 4.60302 31.9235 4.92745 31.6453 5.34371C31.3672 5.75998 31.2188 6.24937 31.2188 6.75C31.2188 7.42133 31.4854 8.06516 31.9601 8.53987C32.4348 9.01457 33.0787 9.28125 33.75 9.28125ZM33.75 5.90625C33.9169 5.90625 34.08 5.95574 34.2188 6.04845C34.3575 6.14116 34.4657 6.27294 34.5295 6.42711C34.5934 6.58129 34.6101 6.75094 34.5775 6.91461C34.545 7.07828 34.4646 7.22862 34.3466 7.34662C34.2286 7.46462 34.0783 7.54498 33.9146 7.57754C33.7509 7.6101 33.5813 7.59339 33.4271 7.52952C33.2729 7.46566 33.1412 7.35752 33.0484 7.21876C32.9557 7.08001 32.9062 6.91688 32.9062 6.75C32.9062 6.52622 32.9951 6.31161 33.1534 6.15338C33.3116 5.99515 33.5262 5.90625 33.75 5.90625Z" fill="#38BAEB"/>
<path d="M40.5 9.28125C41.0006 9.28125 41.49 9.1328 41.9063 8.85466C42.3225 8.57652 42.647 8.18119 42.8386 7.71867C43.0302 7.25614 43.0803 6.74719 42.9826 6.25618C42.8849 5.76516 42.6439 5.31414 42.2899 4.96014C41.9359 4.60614 41.4848 4.36506 40.9938 4.26739C40.5028 4.16972 39.9939 4.21985 39.5313 4.41143C39.0688 4.60302 38.6735 4.92745 38.3953 5.34371C38.1172 5.75998 37.9688 6.24937 37.9688 6.75C37.9688 7.42133 38.2354 8.06516 38.7101 8.53987C39.1848 9.01457 39.8287 9.28125 40.5 9.28125ZM40.5 5.90625C40.6669 5.90625 40.83 5.95574 40.9688 6.04845C41.1075 6.14116 41.2157 6.27294 41.2795 6.42711C41.3434 6.58129 41.3601 6.75094 41.3275 6.91461C41.295 7.07828 41.2146 7.22862 41.0966 7.34662C40.9786 7.46462 40.8283 7.54498 40.6646 7.57754C40.5009 7.6101 40.3313 7.59339 40.1771 7.52952C40.0229 7.46566 39.8912 7.35752 39.7984 7.21876C39.7057 7.08001 39.6562 6.91688 39.6562 6.75C39.6562 6.52622 39.7451 6.31161 39.9034 6.15338C40.0616 5.99515 40.2762 5.90625 40.5 5.90625Z" fill="#38BAEB"/>
<path d="M47.25 9.28125C47.7506 9.28125 48.24 9.1328 48.6563 8.85466C49.0725 8.57652 49.397 8.18119 49.5886 7.71867C49.7802 7.25614 49.8303 6.74719 49.7326 6.25618C49.6349 5.76516 49.3939 5.31414 49.0399 4.96014C48.6859 4.60614 48.2348 4.36506 47.7438 4.26739C47.2528 4.16972 46.7439 4.21985 46.2813 4.41143C45.8188 4.60302 45.4235 4.92745 45.1453 5.34371C44.8672 5.75998 44.7188 6.24937 44.7188 6.75C44.7188 7.42133 44.9854 8.06516 45.4601 8.53987C45.9348 9.01457 46.5787 9.28125 47.25 9.28125ZM47.25 5.90625C47.4169 5.90625 47.58 5.95574 47.7188 6.04845C47.8575 6.14116 47.9657 6.27294 48.0295 6.42711C48.0934 6.58129 48.1101 6.75094 48.0775 6.91461C48.045 7.07828 47.9646 7.22862 47.8466 7.34662C47.7286 7.46462 47.5783 7.54498 47.4146 7.57754C47.2509 7.6101 47.0813 7.59339 46.9271 7.52952C46.7729 7.46566 46.6412 7.35752 46.5484 7.21876C46.4557 7.08001 46.4062 6.91688 46.4062 6.75C46.4062 6.52622 46.4951 6.31161 46.6534 6.15338C46.8116 5.99515 47.0262 5.90625 47.25 5.90625Z" fill="#38BAEB"/>
<path d="M32.9063 25.3125C32.9063 24.1444 32.5599 23.0024 31.9109 22.0312C31.2619 21.0599 30.3395 20.3029 29.2602 19.8558C28.181 19.4088 26.9935 19.2918 25.8478 19.5197C24.702 19.7476 23.6497 20.3102 22.8237 21.1362C21.9977 21.9622 21.4351 23.0145 21.2072 24.1603C20.9793 25.306 21.0963 26.4935 21.5433 27.5727C21.9904 28.652 22.7474 29.5744 23.7187 30.2234C24.6899 30.8724 25.8319 31.2188 27 31.2188C28.5659 31.217 30.0671 30.5941 31.1744 29.4869C32.2816 28.3796 32.9045 26.8784 32.9063 25.3125ZM27 21.0938C28.1185 21.0951 29.1908 21.54 29.9816 22.3309C30.7725 23.1218 31.2174 24.194 31.2188 25.3125C31.2145 26.0521 31.0135 26.7772 30.6366 27.4134C30.2659 26.7781 29.736 26.2503 29.0993 25.882C29.3558 25.5012 29.504 25.0577 29.5278 24.5992C29.5517 24.1406 29.4503 23.6841 29.2347 23.2787C29.019 22.8734 28.6971 22.5343 28.3034 22.2978C27.9098 22.0614 27.4592 21.9364 27 21.9364C26.5408 21.9364 26.0902 22.0614 25.6966 22.2978C25.303 22.5343 24.981 22.8734 24.7654 23.2787C24.5497 23.6841 24.4483 24.1406 24.4722 24.5992C24.496 25.0577 24.6442 25.5012 24.9008 25.882C24.264 26.2503 23.7341 26.7781 23.3634 27.4134C22.9865 26.7772 22.7855 26.0521 22.7813 25.3125C22.7826 24.194 23.2275 23.1218 24.0184 22.3309C24.8093 21.54 25.8815 21.0951 27 21.0938ZM26.1563 24.4688C26.1563 24.3019 26.2057 24.1387 26.2984 24C26.3912 23.8612 26.5229 23.7531 26.6771 23.6892C26.8313 23.6254 27.0009 23.6087 27.1646 23.6412C27.3283 23.6738 27.4786 23.7541 27.5966 23.8721C27.7146 23.9901 27.795 24.1405 27.8275 24.3041C27.8601 24.4678 27.8434 24.6375 27.7795 24.7916C27.7157 24.9458 27.6075 25.0776 27.4688 25.1703C27.33 25.263 27.1669 25.3125 27 25.3125C26.7762 25.3125 26.5616 25.2236 26.4034 25.0654C26.2451 24.9071 26.1563 24.6925 26.1563 24.4688ZM24.5877 28.7643C24.7505 28.2522 25.072 27.8053 25.5057 27.4881C25.9394 27.1709 26.4627 26.9999 27 26.9999C27.5373 26.9999 28.0607 27.1709 28.4943 27.4881C28.928 27.8053 29.2495 28.2522 29.4123 28.7643C28.7069 29.2632 27.8641 29.5312 27 29.5312C26.1359 29.5312 25.2932 29.2632 24.5877 28.7643Z" fill="#38BAEB"/>
<path d="M41.3437 32.9062C39.2529 32.9089 37.2373 33.6867 35.6867 35.0894C34.1362 36.4921 33.1608 38.4199 32.9493 40.5H27.8437V36.2812H28.6875C28.882 36.2813 29.0706 36.2141 29.2212 36.0911C29.3719 35.9681 29.4755 35.7968 29.5144 35.6062L29.8055 34.155C30.3089 33.995 30.7978 33.7923 31.2668 33.5492L32.4987 34.3702C32.661 34.4782 32.8556 34.5267 33.0495 34.5075C33.2435 34.4882 33.4248 34.4024 33.5627 34.2647L35.9488 31.8786C36.0866 31.7407 36.1724 31.5594 36.1916 31.3654C36.2108 31.1715 36.1623 30.9768 36.0543 30.8146L35.2333 29.5827C35.4766 29.1138 35.6793 28.6249 35.8391 28.1213L37.2904 27.8302C37.4821 27.7919 37.6546 27.6882 37.7784 27.5367C37.9021 27.3853 37.9694 27.1956 37.9687 27V23.625C37.9688 23.4305 37.9016 23.2419 37.7786 23.0913C37.6556 22.9406 37.4843 22.837 37.2937 22.7981L35.8425 22.507C35.6826 22.0035 35.4799 21.5146 35.2367 21.0457L36.0577 19.8138C36.1657 19.6515 36.2142 19.4569 36.195 19.263C36.1757 19.069 36.0899 18.8877 35.9522 18.7498L33.5661 16.3637C33.4282 16.2259 33.2469 16.1401 33.0529 16.1209C32.859 16.1017 32.6643 16.1502 32.5021 16.2582L31.2702 17.0792C30.8012 16.8361 30.3123 16.6334 29.8088 16.4734L29.5144 15.0187C29.4755 14.8282 29.3719 14.6569 29.2212 14.5339C29.0706 14.4109 28.882 14.3437 28.6875 14.3438H25.3125C25.118 14.3437 24.9294 14.4109 24.7788 14.5339C24.6281 14.6569 24.5245 14.8282 24.4856 15.0187L24.1945 16.47C23.6911 16.63 23.2022 16.8327 22.7332 17.0758L21.5013 16.2548C21.339 16.1468 21.1444 16.0983 20.9505 16.1175C20.7565 16.1368 20.5752 16.2225 20.4373 16.3603L18.0512 18.7464C17.9134 18.8843 17.8276 19.0656 17.8084 19.2596C17.7892 19.4535 17.8377 19.6482 17.9457 19.8104L18.7667 21.0423C18.5234 21.5112 18.3207 22.0001 18.1609 22.5037L16.7096 22.7948C16.5179 22.8331 16.3454 22.9368 16.2216 23.0883C16.0979 23.2397 16.0306 23.4294 16.0312 23.625V27C16.0312 27.1945 16.0984 27.3831 16.2214 27.5337C16.3444 27.6844 16.5157 27.788 16.7062 27.8269L18.1575 28.118C18.3174 28.6215 18.52 29.1104 18.7633 29.5793L17.9423 30.8112C17.8343 30.9735 17.7858 31.1681 17.805 31.362C17.8243 31.556 17.91 31.7373 18.0478 31.8752L20.4339 34.2613C20.5718 34.3991 20.7531 34.4849 20.9471 34.5041C21.141 34.5233 21.3357 34.4748 21.4979 34.3668L22.7298 33.5458C23.1988 33.7889 23.6877 33.9916 24.1912 34.1516L24.4823 35.6029C24.5206 35.7946 24.6243 35.9671 24.7758 36.0909C24.9272 36.2146 25.1169 36.2819 25.3125 36.2812H26.1562V40.5H21.0507C20.8343 38.3462 19.7983 36.358 18.1571 34.9466C16.5159 33.5351 14.395 32.8085 12.2331 32.9168C10.0712 33.0252 8.0336 33.9603 6.54178 35.5288C5.04995 37.0973 4.21801 39.1791 4.21801 41.3437C4.21801 43.5084 5.04995 45.5902 6.54178 47.1587C8.0336 48.7272 10.0712 49.6623 12.2331 49.7707C14.395 49.879 16.5159 49.1524 18.1571 47.7409C19.7983 46.3295 20.8343 44.3413 21.0507 42.1875H32.9476C33.1109 43.8121 33.742 45.3544 34.7645 46.6274C35.7869 47.9004 37.1568 48.8494 38.7079 49.3593C40.259 49.8692 41.9247 49.9181 43.503 49.5C45.0814 49.082 46.5045 48.215 47.5999 47.0041C48.6953 45.7933 49.4158 44.2907 49.6741 42.6785C49.9323 41.0663 49.7173 39.4138 49.055 37.9213C48.3927 36.4289 47.3117 35.1607 45.9429 34.2705C44.5742 33.3804 42.9765 32.9064 41.3437 32.9062ZM25.7487 33.3155C25.7174 33.1596 25.6426 33.0157 25.533 32.9005C25.4234 32.7852 25.2835 32.7033 25.1294 32.6641C24.425 32.4851 23.7501 32.2054 23.1255 31.8338C22.9886 31.7522 22.8314 31.711 22.6721 31.7151C22.5127 31.7191 22.3578 31.7682 22.2252 31.8566L21.141 32.5789L19.7328 31.1707L20.4559 30.0864C20.5441 29.9539 20.5931 29.7992 20.5972 29.64C20.6012 29.4808 20.5601 29.3238 20.4787 29.187C20.1073 28.5627 19.828 27.888 19.6492 27.1839C19.6101 27.0295 19.5281 26.8894 19.4127 26.7796C19.2973 26.6699 19.1532 26.5951 18.997 26.5638L17.7187 26.309V24.316L18.997 24.0629C19.1532 24.0316 19.2973 23.9568 19.4127 23.847C19.5281 23.7373 19.6101 23.5971 19.6492 23.4427C19.8278 22.7383 20.1071 22.0634 20.4787 21.4388C20.5601 21.302 20.6012 21.145 20.5972 20.9858C20.5931 20.8267 20.5441 20.6719 20.4559 20.5394L19.7328 19.4552L21.141 18.0478L22.2252 18.7701C22.3578 18.8585 22.5127 18.9076 22.6721 18.9116C22.8314 18.9156 22.9886 18.8745 23.1255 18.7928C23.7501 18.4212 24.425 18.1416 25.1294 17.9626C25.2835 17.9234 25.4234 17.8415 25.533 17.7262C25.6426 17.611 25.7174 17.4671 25.7487 17.3112L26.0044 16.0312H27.9956L28.2487 17.3095C28.2801 17.4654 28.3549 17.6093 28.4645 17.7245C28.574 17.8398 28.7139 17.9217 28.8681 17.9609C29.5725 18.1399 30.2474 18.4196 30.872 18.7912C31.0089 18.8728 31.1661 18.914 31.3254 18.9099C31.4847 18.9059 31.6397 18.8568 31.7722 18.7684L32.8565 18.0461L34.2647 19.4535L33.5416 20.5377C33.4533 20.6702 33.4043 20.825 33.4003 20.9841C33.3963 21.1433 33.4374 21.3004 33.5188 21.4372C33.8904 22.0617 34.1697 22.7366 34.3482 23.4411C34.3873 23.5954 34.4693 23.7356 34.5847 23.8454C34.7002 23.9551 34.8443 24.0299 35.0004 24.0612L36.2787 24.3143V26.3073L35.0004 26.5604C34.8443 26.5917 34.7002 26.6665 34.5847 26.7763C34.4693 26.886 34.3873 27.0262 34.3482 27.1806C34.1695 27.8847 33.8901 28.5593 33.5188 29.1836C33.4374 29.3204 33.3963 29.4775 33.4003 29.6366C33.4043 29.7958 33.4533 29.9506 33.5416 30.0831L34.2647 31.1673L32.8565 32.5755L31.7722 31.8532C31.6397 31.7648 31.4847 31.7157 31.3254 31.7117C31.1661 31.7077 31.0089 31.7488 30.872 31.8305C30.2474 32.2021 29.5725 32.4817 28.8681 32.6607C28.7139 32.6999 28.574 32.7818 28.4645 32.8971C28.3549 33.0123 28.2801 33.1562 28.2487 33.3121L27.9956 34.5937H26.0044L25.7487 33.3155ZM8.65265 46.7657C8.83475 46.2291 9.12224 45.7343 9.49824 45.3103C9.87424 44.8863 10.3312 44.5418 10.8422 44.2969C11.4058 44.5771 12.0268 44.723 12.6562 44.723C13.2857 44.723 13.9067 44.5771 14.4703 44.2969C14.9824 44.542 15.4403 44.887 15.8171 45.3117C16.1938 45.7364 16.4818 46.2322 16.6641 46.7699C15.5074 47.6322 14.1032 48.098 12.6605 48.098C11.2177 48.098 9.81356 47.6322 8.65687 46.7699L8.65265 46.7657ZM12.6562 43.0312C12.1556 43.0312 11.6662 42.8828 11.25 42.6047C10.8337 42.3265 10.5093 41.9312 10.3177 41.4687C10.1261 41.0061 10.076 40.4972 10.1736 40.0062C10.2713 39.5152 10.5124 39.0641 10.8664 38.7101C11.2204 38.3561 11.6714 38.1151 12.1624 38.0174C12.6534 37.9197 13.1624 37.9698 13.6249 38.1614C14.0874 38.353 14.4828 38.6775 14.7609 39.0937C15.039 39.51 15.1875 39.9994 15.1875 40.5C15.1875 41.1713 14.9208 41.8152 14.4461 42.2899C13.9714 42.7646 13.3276 43.0312 12.6562 43.0312ZM17.9617 45.5034C17.4918 44.5562 16.7791 43.7506 15.8962 43.1688C16.5246 42.421 16.8709 41.4767 16.875 40.5C16.875 39.3811 16.4305 38.3081 15.6394 37.5169C14.8482 36.7257 13.7751 36.2812 12.6562 36.2812C11.5374 36.2812 10.4643 36.7257 9.67314 37.5169C8.88197 38.3081 8.4375 39.3811 8.4375 40.5C8.44203 41.4766 8.7883 42.4208 9.41625 43.1688C8.53358 43.7508 7.8209 44.5564 7.35075 45.5034C6.56762 44.5078 6.08046 43.3119 5.94497 42.0524C5.80948 40.7929 6.03113 39.5207 6.58457 38.3813C7.13802 37.2419 8.00092 36.2811 9.07463 35.609C10.1483 34.9369 11.3895 34.5804 12.6562 34.5804C13.923 34.5804 15.1642 34.9369 16.2379 35.609C17.3116 36.2811 18.1745 37.2419 18.7279 38.3813C19.2814 39.5207 19.503 40.7929 19.3675 42.0524C19.232 43.3119 18.7449 44.5078 17.9617 45.5034ZM37.3402 46.7691C37.5219 46.2318 37.8092 45.7364 38.1852 45.3118C38.5612 44.8872 39.0183 44.5422 39.5297 44.2969C40.0933 44.5771 40.7143 44.723 41.3437 44.723C41.9732 44.723 42.5942 44.5771 43.1578 44.2969C43.6691 44.5424 44.1262 44.8877 44.5022 45.3124C44.8782 45.737 45.1656 46.2326 45.3473 46.7699C44.1907 47.6322 42.7865 48.098 41.3437 48.098C39.901 48.098 38.4968 47.6314 37.3402 46.7691ZM41.3437 43.0312C40.8431 43.0312 40.3537 42.8828 39.9375 42.6047C39.5212 42.3265 39.1968 41.9312 39.0052 41.4687C38.8136 41.0061 38.7635 40.4972 38.8611 40.0062C38.9588 39.5152 39.1999 39.0641 39.5539 38.7101C39.9079 38.3561 40.3589 38.1151 40.8499 38.0174C41.3409 37.9197 41.8499 37.9698 42.3124 38.1614C42.7749 38.353 43.1703 38.6775 43.4484 39.0937C43.7265 39.51 43.875 39.9994 43.875 40.5C43.875 41.1713 43.6083 41.8152 43.1336 42.2899C42.6589 42.7646 42.0151 43.0312 41.3437 43.0312ZM46.6492 45.5034C46.1793 44.5562 45.4666 43.7506 44.5837 43.1688C45.2121 42.421 45.5584 41.4767 45.5625 40.5C45.5625 39.3811 45.118 38.3081 44.3269 37.5169C43.5357 36.7257 42.4626 36.2812 41.3437 36.2812C40.2249 36.2812 39.1518 36.7257 38.3606 37.5169C37.5695 38.3081 37.125 39.3811 37.125 40.5C37.1295 41.4766 37.4758 42.4208 38.1037 43.1688C37.2211 43.7508 36.5084 44.5564 36.0382 45.5034C35.2551 44.5078 34.768 43.3119 34.6325 42.0524C34.497 40.7929 34.7186 39.5207 35.2721 38.3813C35.8255 37.2419 36.6884 36.2811 37.7621 35.609C38.8358 34.9369 40.077 34.5804 41.3437 34.5804C42.6105 34.5804 43.8517 34.9369 44.9254 35.609C45.9991 36.2811 46.862 37.2419 47.4154 38.3813C47.9689 39.5207 48.1905 40.7929 48.055 42.0524C47.9195 43.3119 47.4324 44.5078 46.6492 45.5034Z" fill="#38BAEB"/>
</g>
<defs>
<clipPath id="clip0_3199_9474">
<rect width="54" height="54" fill="white"/>
</clipPath>
</defs>
</svg>
