<svg width="52" height="53" viewBox="0 0 52 53" fill="none" xmlns="http://www.w3.org/2000/svg">
<path d="M22.8912 33.5496H19.6865C19.2404 33.5496 18.8779 33.9121 18.8779 34.3582C18.8779 34.8043 19.2404 35.1668 19.6865 35.1668H21.4277V36.9996C21.4277 37.4457 21.7902 37.8082 22.2363 37.8082C22.6824 37.8082 23.0449 37.4457 23.0449 36.9996V35.1587C24.464 35.0792 25.5946 33.9027 25.5946 32.4647V32.1736C25.5946 30.6831 24.3818 29.4716 22.8926 29.4716H21.5813C20.983 29.4716 20.4965 28.9851 20.4965 28.3867C20.4965 27.7884 20.983 27.3019 21.5813 27.3019H24.7861C25.2321 27.3019 25.5946 26.9393 25.5946 26.4933C25.5946 26.0472 25.2321 25.6847 24.7861 25.6847H23.0449V23.4341C23.0449 22.988 22.6824 22.6255 22.2363 22.6255C21.7902 22.6255 21.4277 22.988 21.4277 23.4341V25.6928C20.0086 25.7723 18.8779 26.9488 18.8779 28.3867C18.8779 29.8247 20.0908 31.0888 21.58 31.0888H22.8912C23.4896 31.0888 23.9761 31.5753 23.9761 32.1736V32.4647C23.9761 33.0631 23.4896 33.5496 22.8912 33.5496Z" fill="#38BAEB"/>
<path d="M6.30549 35.7355C3.5118 36.4242 1.60352 37.9821 1.60352 39.8364C1.60352 40.4914 1.8434 41.1086 2.2733 41.6652C1.85553 42.2083 1.62643 42.8053 1.60486 43.4266V43.5101C1.60486 44.1557 1.83262 44.781 2.27061 45.3497C2.05902 45.6246 1.89596 45.913 1.7841 46.2122C1.66551 46.5302 1.60486 46.8591 1.60486 47.1892C1.60486 49.7026 5.10203 51.6702 9.56547 51.6702C11.2433 51.6702 12.7837 51.3926 14.0545 50.9115C16.4816 52.189 19.3333 52.8629 22.3291 52.8629C25.325 52.8629 28.3046 52.1554 30.7587 50.8158C32.7209 51.8723 35.4243 52.5165 38.4538 52.5165C44.5911 52.5165 49.3968 49.8751 49.3968 46.5046C49.3968 45.5869 49.0397 44.6988 48.3578 43.8983C49.0397 43.0964 49.3968 42.2083 49.3968 41.2919C49.3968 40.3755 49.041 39.4901 48.3618 38.6896C49.041 37.8891 49.3968 37.0023 49.3968 36.0872C49.3968 33.7895 47.1354 31.7572 43.5439 30.7451L45.2581 27.9299C45.4077 27.6833 45.4158 27.3746 45.277 27.1213C45.1382 26.8679 44.8754 26.7076 44.587 26.7008L42.0885 26.6429V5.27039C42.0885 4.82432 41.7259 4.4618 41.2799 4.4618H37.0186C36.5725 4.4618 36.21 4.82432 36.21 5.27039V26.5054L34.7208 26.4704C33.7842 24.7588 32.671 22.922 31.4029 21.0043C30.4056 19.4963 29.1752 17.6297 28.934 15.8252L31.8948 6.85523C31.9056 6.82424 31.9137 6.79189 31.9204 6.75955C32.1293 5.70434 31.853 4.64643 31.1414 3.77988C30.2965 2.75027 28.9232 2.13574 27.4718 2.13574H17.0962C15.6434 2.13574 14.2715 2.75027 13.4265 3.77988C12.7149 4.64643 12.4387 5.70434 12.6476 6.75955C12.653 6.7892 12.661 6.8202 12.6705 6.8485L15.0572 14.3064C13.3793 13.7471 10.8215 13.3536 8.99676 15.1784C7.15047 17.0246 5.21793 15.3536 5.005 15.1595C4.67887 14.8549 4.16676 14.8724 3.86219 15.1986C3.55762 15.5247 3.57514 16.0368 3.90127 16.3414C4.55354 16.9519 5.76508 17.6634 7.13969 17.6634C8.10596 17.6634 9.15309 17.3104 10.1409 16.3225C11.7163 14.7471 14.3968 15.7188 15.4857 16.2147C15.165 17.9397 14.1084 19.6499 13.1206 21.139C9.11805 27.1752 6.82973 32.082 6.30818 35.7369L6.30549 35.7355ZM7.16395 37.1964C7.18416 37.1937 7.20437 37.1896 7.22459 37.1842C7.93615 37.0495 8.72184 36.9713 9.56682 36.9713C13.3052 36.9713 15.9116 38.4807 15.9116 39.8351C15.9116 40.2394 15.6784 40.6572 15.2526 41.0453C15.2297 41.0628 15.2095 41.083 15.1879 41.1032C14.1664 41.9873 12.1328 42.6988 9.56682 42.6988C5.82842 42.6988 3.22205 41.1895 3.22205 39.8351C3.22205 38.7947 4.75838 37.664 7.16395 37.195V37.1964ZM3.9107 44.7446C3.5967 44.4656 3.22205 44.0249 3.22205 43.5088V43.4711C3.23148 43.2069 3.33795 42.9643 3.4808 42.7541C4.92953 43.7163 7.09926 44.3174 9.56682 44.3174C12.0344 44.3174 14.2028 43.7163 15.6515 42.7541C15.8011 42.9751 15.9102 43.2312 15.9102 43.5088C15.9102 44.0249 15.5356 44.4656 15.2229 44.7432C14.0882 45.7486 11.9212 46.3726 9.56682 46.3726C8.15447 46.3726 6.80951 46.1515 5.67883 45.7351C4.95379 45.4683 4.34195 45.126 3.91205 44.7446H3.9107ZM3.22205 47.1892C3.22205 47.0531 3.24766 46.9143 3.29887 46.7769C3.34064 46.6637 3.39994 46.5518 3.47541 46.4399C3.94844 46.7526 4.49693 47.0248 5.1182 47.2539C6.42678 47.7364 7.96445 47.9911 9.56547 47.9911C11.9656 47.9911 14.1718 47.4197 15.6555 46.4399C15.8024 46.6596 15.9102 46.913 15.9102 47.1892C15.9102 47.9197 15.1515 48.6959 13.8658 49.2552C13.8173 49.2714 13.7702 49.2902 13.7243 49.3158C12.6422 49.7606 11.215 50.0544 9.56547 50.0544C5.82707 50.0544 3.22205 48.545 3.22205 47.1906V47.1892ZM38.4538 50.8993C35.3987 50.8993 32.8961 50.2174 31.2533 49.2525C31.2007 49.2121 31.1428 49.177 31.0808 49.1487C29.8315 48.3698 29.1267 47.4224 29.1267 46.5033C29.1267 46.2688 29.1698 46.0329 29.2574 45.8012C29.3612 45.5235 29.5243 45.2486 29.7466 44.9818C30.4501 45.4858 31.2937 45.9211 32.2681 46.2782C34.0847 46.948 36.2221 47.3024 38.4525 47.3024C41.9362 47.3024 45.1166 46.4453 47.1583 44.9831C47.4966 45.3928 47.7796 45.9117 47.7796 46.5033C47.7796 48.6258 44.0318 50.898 38.4538 50.898V50.8993ZM47.1637 39.7758C47.4993 40.1841 47.7796 40.7016 47.7796 41.2905C47.7796 42.1477 47.188 42.8525 46.6907 43.2918C45.0237 44.7688 41.8661 45.6853 38.4525 45.6853C36.4108 45.6853 34.4661 45.3659 32.8274 44.7608C31.76 44.3686 30.8571 43.8605 30.2156 43.2918C29.7183 42.8511 29.1267 42.1463 29.1267 41.2892C29.1267 41.2636 29.1267 41.238 29.1267 41.2245C29.1442 40.7313 29.3504 40.2448 29.7412 39.7744C31.7816 41.2393 34.9647 42.0991 38.4525 42.0991C41.9402 42.0991 45.122 41.2407 47.1624 39.7758H47.1637ZM47.781 36.0859C47.781 36.9376 47.1974 37.637 46.7042 38.0777C46.6974 38.0845 46.6894 38.0899 46.6826 38.0966C45.0115 39.5682 41.8634 40.4819 38.4552 40.4819C35.047 40.4819 31.8975 39.5682 30.2277 38.0966C30.221 38.0899 30.2143 38.0845 30.2075 38.0791C29.7143 37.6397 29.1294 36.939 29.1294 36.0872C29.1294 34.2733 31.725 32.5753 35.3771 31.9486L38.2247 37.1559C38.3635 37.4093 38.6263 37.5697 38.9161 37.5764H38.9349C39.2166 37.5764 39.478 37.4295 39.6249 37.1883L42.6706 32.1858C45.7514 32.9499 47.7837 34.4822 47.7837 36.0886L47.781 36.0859ZM37.0011 28.1401C37.0011 28.1401 37.0064 28.1401 37.0091 28.1401H37.0199C37.0347 28.1401 37.0482 28.1388 37.063 28.1374H37.09C37.1129 28.1361 37.1345 28.132 37.156 28.1293C37.1601 28.1293 37.1641 28.1293 37.1682 28.128C37.1924 28.1239 37.218 28.1172 37.2409 28.1105H37.2436C37.3205 28.0876 37.3919 28.0552 37.4566 28.0134C37.4768 28 37.497 27.9851 37.5172 27.9703L37.5213 27.9676C37.5388 27.9541 37.5563 27.9393 37.5725 27.9231L37.5806 27.9151C37.5954 27.9016 37.6088 27.8868 37.6223 27.8706C37.6264 27.8665 37.6304 27.8612 37.6345 27.8571C37.6466 27.8436 37.6574 27.8288 37.6681 27.814C37.6735 27.8072 37.6789 27.8005 37.683 27.7938C37.6924 27.7803 37.7005 27.7668 37.7086 27.7533C37.714 27.7453 37.7194 27.7358 37.7247 27.7277C37.7315 27.7156 37.7382 27.7021 37.745 27.6887C37.7504 27.6779 37.7557 27.6671 37.7598 27.6563C37.7652 27.6442 37.7706 27.6307 37.7746 27.6172C37.7787 27.6051 37.784 27.5943 37.7881 27.5822C37.7921 27.5687 37.7962 27.5566 37.7989 27.5431C37.8029 27.531 37.8056 27.5175 37.8083 27.5054C37.811 27.4919 37.8137 27.4784 37.815 27.4649C37.8177 27.4515 37.8191 27.438 37.8218 27.4245C37.8245 27.411 37.8245 27.3976 37.8245 27.3841C37.8245 27.3733 37.8272 27.3625 37.8272 27.3517C37.8272 27.349 37.8272 27.345 37.8272 27.3423C37.8272 27.3396 37.8272 27.3369 37.8272 27.3329V6.07898H40.4713V27.4326C40.4713 27.4434 40.4713 27.4528 40.4726 27.4636C40.4726 27.4784 40.4726 27.4919 40.4753 27.5067C40.4753 27.5202 40.478 27.5323 40.4807 27.5458C40.4821 27.5593 40.4847 27.5741 40.4874 27.5876C40.4901 27.6011 40.4928 27.6132 40.4969 27.6253C40.4996 27.6388 40.5036 27.6523 40.5063 27.6644C40.5104 27.6765 40.5144 27.69 40.5198 27.7021C40.5238 27.7143 40.5279 27.7264 40.5333 27.7385C40.5387 27.7506 40.544 27.7628 40.5494 27.7762C40.5548 27.787 40.5602 27.7992 40.5656 27.8099C40.5723 27.8221 40.5791 27.8342 40.5858 27.845C40.5926 27.8558 40.5979 27.8665 40.6047 27.876C40.6128 27.8868 40.6209 27.8989 40.6289 27.9097C40.6357 27.9191 40.6438 27.9299 40.6505 27.9393C40.6586 27.9501 40.668 27.9595 40.6775 27.9703C40.6855 27.9797 40.6936 27.9892 40.7017 27.9973C40.7112 28.0067 40.7206 28.0161 40.7314 28.0256C40.7408 28.0336 40.7489 28.0431 40.7583 28.0512C40.7691 28.0593 40.7785 28.0673 40.7893 28.0754C40.7988 28.0835 40.8095 28.0903 40.819 28.0983C40.8298 28.1064 40.8419 28.1132 40.8527 28.1199C40.8634 28.1266 40.8742 28.1334 40.885 28.1401C40.8971 28.1469 40.9093 28.1522 40.9214 28.159C40.9322 28.1644 40.9443 28.1698 40.9551 28.1752C40.9672 28.1805 40.9807 28.1859 40.9942 28.19C41.0063 28.194 41.0171 28.1994 41.0292 28.2021C41.0427 28.2062 41.0562 28.2102 41.071 28.2142C41.0831 28.2169 41.0939 28.221 41.106 28.2237C41.1208 28.2264 41.1357 28.2291 41.1491 28.2318C41.1613 28.2331 41.1734 28.2358 41.1855 28.2371C41.2004 28.2385 41.2152 28.2398 41.23 28.2398C41.2394 28.2398 41.2502 28.2412 41.2597 28.2425L43.1477 28.287L38.9673 35.1533L35.1103 28.101L36.9984 28.1455L37.0011 28.1401ZM14.6744 4.80545C15.2162 4.1451 16.1205 3.75158 17.0948 3.75158H27.4704C28.4448 3.75158 29.3491 4.1451 29.8908 4.80545C30.2789 5.27848 30.438 5.8418 30.3409 6.39973L27.5216 14.9412H25.1053L26.7643 9.58559C26.8963 9.15838 26.6578 8.70557 26.2306 8.5735C25.8034 8.44143 25.3506 8.67996 25.2185 9.10717L23.4113 14.9412H21.3655L19.5583 9.10717C19.4263 8.67996 18.9735 8.44143 18.5462 8.5735C18.119 8.70557 17.8805 9.15838 18.0126 9.58559L19.6715 14.9412H16.9533L14.2216 6.40377C14.1232 5.84584 14.2823 5.27982 14.6717 4.8068L14.6744 4.80545ZM17.0638 16.557H27.4192C27.8329 18.534 29.0512 20.3803 30.0539 21.8964C31.19 23.6147 32.198 25.2615 33.0605 26.8086C33.0538 26.8181 33.047 26.8262 33.0403 26.8369C32.8907 27.0836 32.8826 27.3922 33.0214 27.6455L34.5591 30.4567C30.2978 31.3165 27.5109 33.5051 27.5109 36.0886C27.5109 37.0037 27.8666 37.8918 28.5459 38.6909C27.8976 39.455 27.5432 40.3027 27.5122 41.1827C27.5122 41.2191 27.5109 41.2569 27.5109 41.2932C27.5109 42.2096 27.868 43.0978 28.5499 43.8996C28.1887 44.3241 27.9165 44.7715 27.744 45.2392C27.589 45.6516 27.5109 46.0788 27.5109 46.506C27.5109 47.7229 28.1402 48.8428 29.2278 49.7794C27.178 50.7417 24.8196 51.247 22.3291 51.247C20.0138 51.247 17.801 50.8104 15.8429 49.9748C16.9008 49.2148 17.5261 48.2512 17.5261 47.1892C17.5261 46.5424 17.2983 45.917 16.8603 45.3497C17.297 44.781 17.5261 44.1557 17.5261 43.5101C17.5261 42.8646 17.2956 42.2353 16.8563 41.6652C17.2862 41.11 17.5261 40.4914 17.5261 39.8378C17.5261 37.3244 14.0289 35.3568 9.56412 35.3568C9.02371 35.3568 8.49947 35.3865 7.99141 35.4417C8.62076 32.1009 10.839 27.5 14.4629 22.0325C15.5315 20.4207 16.6757 18.5596 17.0611 16.5597L17.0638 16.557Z" fill="#38BAEB"/>
</svg>
