<svg width="61" height="61" viewBox="0 0 61 61" fill="none" xmlns="http://www.w3.org/2000/svg">
<mask id="mask0_3199_9286" style="mask-type:luminance" maskUnits="userSpaceOnUse" x="0" y="0" width="61" height="61">
<path d="M60.25 60.25V0.75H0.75V60.25H60.25Z" fill="white" stroke="white" stroke-width="1.5"/>
</mask>
<g mask="url(#mask0_3199_9286)">
<path d="M44.218 36.9541H1.32599" stroke="#FF0000" stroke-width="1.5" stroke-miterlimit="10" stroke-linecap="round" stroke-linejoin="round"/>
<path d="M59.6405 36.9536H48.6294" stroke="#FF0000" stroke-width="1.5" stroke-miterlimit="10" stroke-linecap="round" stroke-linejoin="round"/>
<path d="M52.0834 4.83945H57.5472C58.9602 4.83945 60.1063 5.98439 60.1063 7.39847V40.4589C60.1063 41.8719 58.9602 43.0181 57.5472 43.0181H16.657" stroke="#FF0000" stroke-width="1.5" stroke-miterlimit="10" stroke-linecap="round" stroke-linejoin="round"/>
<path d="M39.6625 4.83936H47.6728" stroke="#FF0000" stroke-width="1.5" stroke-miterlimit="10" stroke-linecap="round" stroke-linejoin="round"/>
<path d="M10.3593 43.0181H3.45269C2.03969 43.0181 0.893555 41.8719 0.893555 40.4589V7.39847C0.893555 5.98439 2.03969 4.83945 3.45269 4.83945H35.6724" stroke="#FF0000" stroke-width="1.5" stroke-miterlimit="10" stroke-linecap="round" stroke-linejoin="round"/>
<path d="M31.6427 56.1606H20.982C19.8728 56.1606 18.9745 55.2611 18.9745 54.1519C18.9745 53.5967 19.1984 53.0953 19.5618 52.7318C19.9252 52.3697 20.428 52.1444 20.982 52.1444H30.5347" stroke="#FF0000" stroke-width="1.5" stroke-miterlimit="10" stroke-linecap="round" stroke-linejoin="round"/>
<path d="M33.8002 48.9628V53.3379H35.8974" stroke="#FF0000" stroke-width="1.5" stroke-miterlimit="10" stroke-linecap="round" stroke-linejoin="round"/>
<path d="M38.3311 48.9628V53.3379" stroke="#FF0000" stroke-width="1.5" stroke-miterlimit="10" stroke-linecap="round" stroke-linejoin="round"/>
<path d="M40.8899 48.9628L42.5148 53.3379L44.1397 48.9628" stroke="#FF0000" stroke-width="1.5" stroke-miterlimit="10" stroke-linecap="round" stroke-linejoin="round"/>
<path d="M48.6691 53.3374H46.5718V48.9623H48.6691" stroke="#FF0000" stroke-width="1.5" stroke-miterlimit="10" stroke-linecap="round" stroke-linejoin="round"/>
<path d="M46.5718 51.1499H48.1968" stroke="#FF0000" stroke-width="1.5" stroke-miterlimit="10" stroke-linecap="round" stroke-linejoin="round"/>
<path d="M50.5877 56.1606H31.8812C31.2687 56.1606 30.7721 55.6641 30.7721 55.0516V47.2481C30.7721 46.6357 31.2687 46.1391 31.8812 46.1391H50.5877C51.2002 46.1391 51.6968 46.6357 51.6968 47.2481V55.0516C51.6968 55.6641 51.2002 56.1606 50.5877 56.1606Z" stroke="#FF0000" stroke-width="1.5" stroke-miterlimit="10" stroke-linecap="round" stroke-linejoin="round"/>
<path d="M20.4563 49.2128C20.4563 53.05 17.3456 56.1606 13.5085 56.1606C9.67121 56.1606 6.56056 53.05 6.56056 49.2128C6.56056 45.3757 9.67121 42.265 13.5085 42.265C17.3456 42.265 20.4563 45.3757 20.4563 49.2128Z" stroke="#FF0000" stroke-width="1.5" stroke-miterlimit="10" stroke-linecap="round" stroke-linejoin="round"/>
<path d="M14.7957 51.9814C14.4419 51.7004 13.9952 51.5315 13.5083 51.5315C13.0214 51.5315 12.5747 51.7004 12.2209 51.9814" stroke="#FF0000" stroke-width="1.5" stroke-miterlimit="10" stroke-linecap="round" stroke-linejoin="round"/>
<path d="M16.1882 49.7583C15.4518 49.1734 14.522 48.8216 13.5085 48.8216C12.4951 48.8216 11.5652 49.1734 10.8288 49.7583" stroke="#FF0000" stroke-width="1.5" stroke-miterlimit="10" stroke-linecap="round" stroke-linejoin="round"/>
<path d="M17.367 47.4878C16.3068 46.6456 14.9678 46.1389 13.5084 46.1389C12.0491 46.1389 10.71 46.6456 9.64981 47.4878" stroke="#FF0000" stroke-width="1.5" stroke-miterlimit="10" stroke-linecap="round" stroke-linejoin="round"/>
<path d="M36.0521 31.3008H29.8818" stroke="#FF0000" stroke-width="1.5" stroke-miterlimit="10" stroke-linecap="round" stroke-linejoin="round"/>
<path d="M25.5259 31.3008H16.0507" stroke="#FF0000" stroke-width="1.5" stroke-miterlimit="10" stroke-linecap="round" stroke-linejoin="round"/>
<path d="M59.6405 31.3003H40.6102" stroke="#FF0000" stroke-width="1.5" stroke-miterlimit="10" stroke-linecap="round" stroke-linejoin="round"/>
<path d="M4.38075 31.3008H1.32599" stroke="#FF0000" stroke-width="1.5" stroke-miterlimit="10" stroke-linecap="round" stroke-linejoin="round"/>
<path d="M30.1772 20.7881H16.0507" stroke="#FF0000" stroke-width="1.5" stroke-miterlimit="10" stroke-linecap="round" stroke-linejoin="round"/>
<path d="M59.6405 20.7881H46.8913" stroke="#FF0000" stroke-width="1.5" stroke-miterlimit="10" stroke-linecap="round" stroke-linejoin="round"/>
<path d="M42.924 20.7881H34.9857" stroke="#FF0000" stroke-width="1.5" stroke-miterlimit="10" stroke-linecap="round" stroke-linejoin="round"/>
<path d="M4.38075 20.7881H1.32599" stroke="#FF0000" stroke-width="1.5" stroke-miterlimit="10" stroke-linecap="round" stroke-linejoin="round"/>
<path d="M39.6625 10.2744H59.6409" stroke="#FF0000" stroke-width="1.5" stroke-miterlimit="10" stroke-linecap="round" stroke-linejoin="round"/>
<path d="M1.32625 10.2744H35.6722" stroke="#FF0000" stroke-width="1.5" stroke-miterlimit="10" stroke-linecap="round" stroke-linejoin="round"/>
<path d="M19.238 27.7808H21.8091" stroke="#FF0000" stroke-width="1.5" stroke-miterlimit="10" stroke-linecap="round" stroke-linejoin="round"/>
<path d="M20.1015 24.4624H22.6728" stroke="#FF0000" stroke-width="1.5" stroke-miterlimit="10" stroke-linecap="round" stroke-linejoin="round"/>
<path d="M56.0271 27.7808H53.456" stroke="#FF0000" stroke-width="1.5" stroke-miterlimit="10" stroke-linecap="round" stroke-linejoin="round"/>
<path d="M55.1634 24.4629H52.5921" stroke="#FF0000" stroke-width="1.5" stroke-miterlimit="10" stroke-linecap="round" stroke-linejoin="round"/>
<path d="M22.8122 17.1895H25.3834" stroke="#FF0000" stroke-width="1.5" stroke-miterlimit="10" stroke-linecap="round" stroke-linejoin="round"/>
<path d="M23.6755 13.8711H26.2468" stroke="#FF0000" stroke-width="1.5" stroke-miterlimit="10" stroke-linecap="round" stroke-linejoin="round"/>
<path d="M52.4529 17.1895H49.8817" stroke="#FF0000" stroke-width="1.5" stroke-miterlimit="10" stroke-linecap="round" stroke-linejoin="round"/>
<path d="M51.589 13.8711H49.0178" stroke="#FF0000" stroke-width="1.5" stroke-miterlimit="10" stroke-linecap="round" stroke-linejoin="round"/>
<path d="M15.8124 27.9109V31.6509C15.8124 32.3097 15.2787 32.8423 14.621 32.8423H5.81055C5.1517 32.8423 4.61914 32.3097 4.61914 31.6509V19.415" stroke="#FF0000" stroke-width="1.5" stroke-miterlimit="10" stroke-linecap="round" stroke-linejoin="round"/>
<path d="M15.8124 23.5005V19.4152" stroke="#FF0000" stroke-width="1.5" stroke-miterlimit="10" stroke-linecap="round" stroke-linejoin="round"/>
<path d="M15.8126 19.1768V16.2056C15.8126 15.5476 15.2792 15.0142 14.6212 15.0142H5.81C5.15198 15.0142 4.61859 15.5476 4.61859 16.2056V19.1768H15.8126Z" stroke="#FF0000" stroke-width="1.5" stroke-miterlimit="10" stroke-linecap="round" stroke-linejoin="round"/>
<path d="M39.4243 10.2739H35.9106V4.83885H39.4243V10.2739Z" stroke="#FF0000" stroke-width="1.5" stroke-miterlimit="10" stroke-linecap="round" stroke-linejoin="round"/>
<path d="M34.0195 16.9071L34.8904 21.5691C34.9583 21.9361 34.6771 22.2744 34.3042 22.2744H30.8598C30.4869 22.2744 30.2058 21.9361 30.2737 21.5691L31.1446 16.9071" stroke="#FF0000" stroke-width="1.5" stroke-miterlimit="10" stroke-linecap="round" stroke-linejoin="round"/>
<path d="M34.6543 15.4162C34.6543 16.5608 33.7263 17.4888 32.5817 17.4888C31.4371 17.4888 30.5091 16.5608 30.5091 15.4162C30.5091 14.2716 31.4371 13.3436 32.5817 13.3436C33.7263 13.3436 34.6543 14.2716 34.6543 15.4162Z" stroke="#FF0000" stroke-width="1.5" stroke-miterlimit="10" stroke-linecap="round" stroke-linejoin="round"/>
<path d="M39.7689 28.0946L40.6387 32.7565C40.7078 33.1222 40.4266 33.4619 40.0537 33.4619H36.6081C36.2352 33.4619 35.9541 33.1222 36.0232 32.7565L36.8929 28.0946" stroke="#FF0000" stroke-width="1.5" stroke-miterlimit="10" stroke-linecap="round" stroke-linejoin="round"/>
<path d="M40.4036 26.6022C40.4036 27.7468 39.4756 28.6748 38.331 28.6748C37.1864 28.6748 36.2584 27.7468 36.2584 26.6022C36.2584 25.4576 37.1864 24.5297 38.331 24.5297C39.4756 24.5297 40.4036 25.4576 40.4036 26.6022Z" stroke="#FF0000" stroke-width="1.5" stroke-miterlimit="10" stroke-linecap="round" stroke-linejoin="round"/>
<path d="M46.3458 19.1625L47.2155 23.8245C47.2846 24.1914 47.0035 24.5298 46.6305 24.5298H43.185C42.8121 24.5298 42.5309 24.1914 42.6 23.8245L43.4697 19.1637" stroke="#FF0000" stroke-width="1.5" stroke-miterlimit="10" stroke-linecap="round" stroke-linejoin="round"/>
<path d="M46.9803 17.6711C46.9803 18.8157 46.0523 19.7437 44.9077 19.7437C43.7631 19.7437 42.8351 18.8157 42.8351 17.6711C42.8351 16.5265 43.7631 15.5985 44.9077 15.5985C46.0523 15.5985 46.9803 16.5265 46.9803 17.6711Z" stroke="#FF0000" stroke-width="1.5" stroke-miterlimit="10" stroke-linecap="round" stroke-linejoin="round"/>
<path d="M29.1416 28.6344L30.0113 33.2952C30.0804 33.6621 29.7992 34.0005 29.4263 34.0005H25.9808C25.6079 34.0005 25.3267 33.6621 25.3946 33.2952L26.2655 28.6332" stroke="#FF0000" stroke-width="1.5" stroke-miterlimit="10" stroke-linecap="round" stroke-linejoin="round"/>
<path d="M29.7761 27.1423C29.7761 28.2869 28.8481 29.2148 27.7035 29.2148C26.5589 29.2148 25.631 28.2869 25.631 27.1423C25.631 25.9977 26.5589 25.0697 27.7035 25.0697C28.8481 25.0697 29.7761 25.9977 29.7761 27.1423Z" stroke="#FF0000" stroke-width="1.5" stroke-miterlimit="10" stroke-linecap="round" stroke-linejoin="round"/>
</g>
</svg>
