<svg width="64" height="64" viewBox="0 0 64 64" fill="none" xmlns="http://www.w3.org/2000/svg">
<path d="M23 32C14.7285 32 8 38.729 8 47C8 55.271 14.7285 62 23 62C31.2715 62 38 55.271 38 47C38 38.729 31.2715 32 23 32ZM23 60C15.832 60 10 54.1685 10 47C10 39.8315 15.832 34 23 34C30.168 34 36 39.8315 36 47C36 54.1685 30.168 60 23 60Z" fill="#F58A45"/>
<path d="M23 37C17.4863 37 13 41.4858 13 47C13 52.5142 17.4863 57 23 57C28.5137 57 33 52.5142 33 47C33 41.4858 28.5137 37 23 37ZM23 55C18.5889 55 15 51.4111 15 47C15 42.5889 18.5889 39 23 39C27.4111 39 31 42.5889 31 47C31 51.4111 27.4111 55 23 55Z" fill="#F58A45"/>
<path d="M25.792 47.1733L23 47.7656V43C23 42.4478 22.5527 42 22 42C21.4473 42 21 42.4478 21 43V49C21 49.3018 21.1357 49.5874 21.3701 49.7769C21.5498 49.9224 21.7725 50 22 50C22.0693 50 22.1387 49.9927 22.208 49.978L26.208 49.1294C26.748 49.0151 27.0928 48.4839 26.9785 47.9438C26.8643 47.4038 26.3369 47.0552 25.792 47.1733Z" fill="#F58A45"/>
<path d="M51.0703 20H48V14C48 7.3833 42.6172 2 36 2C29.3828 2 24 7.3833 24 14V20H22.9297C20.2119 20 18 22.2119 18 24.9302V29.46C18 30.0122 18.4473 30.46 19 30.46C19.5527 30.46 20 30.0122 20 29.46V24.9302C20 23.3145 21.3145 22 22.9297 22H25H30H42H47H51.0703C52.6855 22 54 23.3145 54 24.9302V45.0698C54 46.6855 52.6855 48 51.0703 48H40.8896C40.3369 48 39.8896 48.4478 39.8896 49C39.8896 49.5522 40.3369 50 40.8896 50H51.0703C53.7881 50 56 47.7881 56 45.0698V24.9302C56 22.2119 53.7881 20 51.0703 20ZM31 20V14.7646C31 12.1372 33.1377 10 35.7646 10H36.2354C38.8623 10 41 12.1372 41 14.7646V20H31ZM43 20V14.7646C43 11.0347 39.9658 8 36.2354 8H35.7646C32.0342 8 29 11.0347 29 14.7646V20H26V14C26 8.48584 30.4863 4 36 4C41.5137 4 46 8.48584 46 14V20H43Z" fill="#F58A45"/>
<path d="M47 42C47.5527 42 48 41.5522 48 41V29C48 28.4478 47.5527 28 47 28H25C24.4473 28 24 28.4478 24 29V29.1099C24 29.6621 24.4473 30.1099 25 30.1099C25.1641 30.1099 25.3193 30.0703 25.4561 30H46V40H39.9697C39.417 40 38.9697 40.4478 38.9697 41C38.9697 41.5522 39.417 42 39.9697 42H47Z" fill="#F58A45"/>
<path d="M36 37C37.1046 37 38 36.1046 38 35C38 33.8954 37.1046 33 36 33C34.8954 33 34 33.8954 34 35C34 36.1046 34.8954 37 36 37Z" fill="#F58A45"/>
<path d="M42 37C43.1046 37 44 36.1046 44 35C44 33.8954 43.1046 33 42 33C40.8954 33 40 33.8954 40 35C40 36.1046 40.8954 37 42 37Z" fill="#F58A45"/>
</svg>
