<svg width="55" height="55" viewBox="0 0 55 55" fill="none" xmlns="http://www.w3.org/2000/svg">
<g clip-path="url(#clip0_3199_9423)">
<path d="M34.0252 39.2032L28.759 37.8858L24.1313 34.0315C25.4173 33.273 26.4836 32.1926 27.225 30.8966C27.9664 29.6007 28.3573 28.1339 28.3594 26.6409C28.9992 26.6315 29.6127 26.3846 30.0806 25.9481C30.5485 25.5115 30.8373 24.9166 30.8909 24.2789C30.9445 23.6412 30.759 23.0064 30.3705 22.4979C29.9821 21.9894 29.4184 21.6436 28.7891 21.5276L29.2789 20.3924C29.9985 18.7239 30.0353 16.8398 29.3814 15.1446C28.7274 13.4493 27.4349 12.078 25.7812 11.3251L23.3827 10.2328C21.9633 9.60265 20.4026 9.35897 18.8586 9.5265C17.3147 9.69402 15.8425 10.2668 14.5913 11.1867L13.2344 12.2034C12.4615 12.4019 11.7428 12.771 11.1311 13.2835C10.5194 13.796 10.0303 14.439 9.69945 15.1652C9.36865 15.8914 9.20462 16.6825 9.21939 17.4804C9.23417 18.2783 9.42738 19.0627 9.78484 19.7762L10.6631 21.5336C10.0343 21.6579 9.47433 22.0121 9.09247 22.5269C8.71062 23.0418 8.53426 23.6805 8.5978 24.3183C8.66134 24.9562 8.96022 25.5475 9.43613 25.9769C9.91205 26.4063 10.5309 26.643 11.1719 26.6409C11.1739 28.1339 11.5649 29.6007 12.3063 30.8966C13.0477 32.1926 14.114 33.273 15.4 34.0315L10.7723 37.8875L5.50602 39.2032C4.17885 39.5348 3.00064 40.3006 2.15869 41.3787C1.31675 42.4569 0.859404 43.7856 0.859375 45.1535V53.2815C0.859375 53.5094 0.949916 53.728 1.11108 53.8892C1.27224 54.0503 1.49083 54.1409 1.71875 54.1409H37.8125C38.0404 54.1409 38.259 54.0503 38.4202 53.8892C38.5813 53.728 38.6719 53.5094 38.6719 53.2815V45.1535C38.6718 43.7856 38.2145 42.4569 37.3726 41.3787C36.5306 40.3006 35.3524 39.5348 34.0252 39.2032ZM20.625 40.3909V43.8284H18.9062V40.3909H20.625ZM22.3438 36.5976C22.3433 37.1476 22.1246 37.675 21.7356 38.064C21.3467 38.4529 20.8193 38.6717 20.2692 38.6721H19.262C18.712 38.6717 18.1846 38.4529 17.7956 38.064C17.4067 37.675 17.188 37.1476 17.1875 36.5976V34.8384C18.8657 35.3667 20.6656 35.3667 22.3438 34.8384V36.5976ZM18.9062 45.5471H20.625V47.2659H18.9062V45.5471ZM22.9513 39.2806C23.3048 38.9291 23.585 38.5109 23.7757 38.0504C23.9665 37.5899 24.0639 37.0961 24.0625 36.5976V36.21L27.3281 38.9299L26.2341 41.6636L22.8173 39.3863C22.8594 39.3502 22.9101 39.3209 22.9513 39.2806ZM29.2188 24.0627C29.2188 24.2907 29.1282 24.5092 28.967 24.6704C28.8059 24.8316 28.5873 24.9221 28.3594 24.9221V23.2034C28.5873 23.2034 28.8059 23.2939 28.967 23.4551C29.1282 23.6162 29.2188 23.8348 29.2188 24.0627ZM11.4589 15.5145C11.7833 14.9776 12.2405 14.5333 12.7864 14.2243C13.3323 13.9153 13.9486 13.752 14.5759 13.7502C15.238 13.7495 15.89 13.9127 16.4737 14.2252C17.0575 14.5377 17.5548 14.9898 17.9214 15.5412L18.1912 15.9459L19.6213 14.992L19.3514 14.5873C18.5876 13.4429 17.4372 12.6118 16.1107 12.2463C17.0857 11.6453 18.1923 11.2903 19.335 11.212C20.4778 11.1337 21.6224 11.3344 22.6703 11.7969L25.0688 12.8909C26.3129 13.4576 27.2852 14.4895 27.777 15.7651C28.2689 17.0407 28.241 18.4582 27.6994 19.7134L27.6418 19.8475L26.5504 17.6647C26.4942 17.5514 26.4137 17.4518 26.3147 17.3732C26.2156 17.2945 26.1004 17.2387 25.9772 17.2097C25.8541 17.1808 25.7261 17.1793 25.6023 17.2055C25.4786 17.2317 25.3621 17.2849 25.2613 17.3613L23.8863 18.3926C22.6963 19.2851 21.2489 19.7676 19.7613 19.7676C18.2738 19.7676 16.8264 19.2851 15.6363 18.3926L14.2613 17.3613C14.1605 17.2849 14.0441 17.2317 13.9203 17.2055C13.7966 17.1793 13.6686 17.1808 13.5454 17.2097C13.4223 17.2387 13.3071 17.2945 13.208 17.3732C13.1089 17.4518 13.0284 17.5514 12.9723 17.6647L11.8164 19.9927L11.3248 19.0105C11.0498 18.4639 10.9179 17.8566 10.9413 17.2452C10.9648 16.6339 11.1429 16.0384 11.4589 15.5145ZM10.3125 24.0627C10.3125 23.8348 10.403 23.6162 10.5642 23.4551C10.7254 23.2939 10.944 23.2034 11.1719 23.2034V24.9221C10.944 24.9221 10.7254 24.8316 10.5642 24.6704C10.403 24.5092 10.3125 24.2907 10.3125 24.0627ZM12.8906 26.6409V21.6874L14.0577 19.3525L14.6094 19.7659C16.0969 20.8815 17.9062 21.4846 19.7656 21.4846C21.6251 21.4846 23.4343 20.8815 24.9219 19.7659L25.4727 19.3525L26.6406 21.6874V26.6409C26.6406 28.4642 25.9163 30.2129 24.627 31.5022C23.3377 32.7915 21.589 33.5159 19.7656 33.5159C17.9423 33.5159 16.1936 32.7915 14.9043 31.5022C13.615 30.2129 12.8906 28.4642 12.8906 26.6409ZM15.4688 36.21V36.5976C15.4673 37.0961 15.5648 37.5899 15.7555 38.0504C15.9463 38.5109 16.2265 38.9291 16.5799 39.2806C16.6212 39.3209 16.6659 39.3502 16.7123 39.3888L13.2954 41.6662L12.2031 38.9299L15.4688 36.21ZM36.9531 52.4221H31.7969V48.1252H30.0781V52.4221H9.45312V48.1252H7.73438V52.4221H2.57812V45.1535C2.5781 44.1688 2.90728 43.2124 3.51332 42.4363C4.11937 41.6602 4.96748 41.109 5.92281 40.8704L10.6494 39.6879L12.0897 43.2887C12.1372 43.4075 12.2107 43.5142 12.3047 43.6009C12.3987 43.6877 12.5109 43.7524 12.6331 43.7903C12.7553 43.8282 12.8845 43.8383 13.0111 43.8199C13.1377 43.8015 13.2586 43.7551 13.365 43.684L17.1875 41.1368V48.1252C17.1875 48.3532 17.278 48.5718 17.4392 48.7329C17.6004 48.8941 17.819 48.9846 18.0469 48.9846H21.4844C21.7123 48.9846 21.9309 48.8941 22.092 48.7329C22.2532 48.5718 22.3438 48.3532 22.3438 48.1252V41.1368L26.1637 43.684C26.3049 43.7782 26.4709 43.8284 26.6406 43.8284C26.8124 43.8285 26.9803 43.7772 27.1226 43.681C27.2649 43.5848 27.3751 43.4481 27.439 43.2887L28.8793 39.6879L33.6059 40.8704C34.5617 41.1086 35.4104 41.6595 36.0169 42.4357C36.6235 43.2118 36.953 44.1685 36.9531 45.1535V52.4221Z" fill="#FF0000"/>
<path d="M53.2812 9.45312H51.8263C51.706 9.11121 51.5677 8.77587 51.4121 8.44852L52.4434 7.41727C52.6045 7.25611 52.695 7.03756 52.695 6.80969C52.695 6.58181 52.6045 6.36327 52.4434 6.20211L48.7936 2.56008C48.6324 2.39897 48.4139 2.30846 48.186 2.30846C47.9581 2.30846 47.7396 2.39897 47.5784 2.56008L46.5472 3.59133C46.2213 3.43464 45.8874 3.29523 45.5469 3.17367V1.71875C45.5469 1.49083 45.4563 1.27224 45.2952 1.11108C45.134 0.949916 44.9154 0.859375 44.6875 0.859375H39.5312C39.3033 0.859375 39.0847 0.949916 38.9236 1.11108C38.7624 1.27224 38.6719 1.49083 38.6719 1.71875V3.17367C38.3302 3.294 37.9952 3.43226 37.6681 3.58789L36.6369 2.55664C36.4727 2.40138 36.2553 2.31486 36.0293 2.31486C35.8033 2.31486 35.5859 2.40138 35.4217 2.55664L31.7788 6.20641C31.6177 6.36756 31.5272 6.58611 31.5272 6.81398C31.5272 7.04186 31.6177 7.26041 31.7788 7.42156L32.8101 8.45281C32.6534 8.7787 32.514 9.1126 32.3924 9.45312H30.9375C30.7096 9.45312 30.491 9.54367 30.3298 9.70483C30.1687 9.86599 30.0781 10.0846 30.0781 10.3125V15.4688C30.0781 15.6967 30.1687 15.9153 30.3298 16.0764C30.491 16.2376 30.7096 16.3281 30.9375 16.3281H32.3924C32.5126 16.6698 32.6509 17.0049 32.8066 17.3319L31.7754 18.3631C31.6143 18.5243 31.5238 18.7428 31.5238 18.9707C31.5238 19.1986 31.6143 19.4171 31.7754 19.5783L35.4217 23.2246C35.5829 23.3857 35.8014 23.4762 36.0293 23.4762C36.2572 23.4762 36.4757 23.3857 36.6369 23.2246L37.6681 22.1934C37.9953 22.3488 38.3303 22.4871 38.6719 22.6076V24.0625C38.6719 24.2904 38.7624 24.509 38.9236 24.6702C39.0847 24.8313 39.3033 24.9219 39.5312 24.9219H44.6875C44.9154 24.9219 45.134 24.8313 45.2952 24.6702C45.4563 24.509 45.5469 24.2904 45.5469 24.0625V22.6076C45.8887 22.4871 46.2241 22.3488 46.5515 22.1934L47.5827 23.2246C47.7439 23.3857 47.9624 23.4762 48.1903 23.4762C48.4182 23.4762 48.6367 23.3857 48.7979 23.2246L52.4442 19.5783C52.6053 19.4171 52.6958 19.1986 52.6958 18.9707C52.6958 18.7428 52.6053 18.5243 52.4442 18.3631L51.413 17.3319C51.5685 17.0049 51.7064 16.6698 51.8263 16.3281H53.2812C53.5092 16.3281 53.7278 16.2376 53.8889 16.0764C54.0501 15.9153 54.1406 15.6967 54.1406 15.4688V10.3125C54.1406 10.0846 54.0501 9.86599 53.8889 9.70483C53.7278 9.54367 53.5092 9.45312 53.2812 9.45312ZM52.4219 14.6094H51.1973C51.0103 14.6094 50.8283 14.6704 50.6791 14.7831C50.5299 14.8959 50.4216 15.0542 50.3705 15.2341C50.1901 15.8758 49.9351 16.4942 49.6109 17.0766C49.5185 17.2405 49.4825 17.43 49.5083 17.6163C49.534 17.8026 49.6202 17.9753 49.7535 18.1079L50.6129 18.9716L48.186 21.3984L47.3266 20.5391C47.194 20.4057 47.0214 20.3196 46.8351 20.2938C46.6488 20.268 46.4592 20.3041 46.2954 20.3964C45.7131 20.7204 45.0951 20.9753 44.4538 21.1561C44.2737 21.207 44.1151 21.3153 44.0022 21.4645C43.8893 21.6137 43.8282 21.7957 43.8281 21.9828V23.2031H40.3906V21.9785C40.3906 21.7914 40.3294 21.6094 40.2165 21.4602C40.1036 21.311 39.9451 21.2027 39.765 21.1518C39.1237 20.971 38.5056 20.7161 37.9234 20.3921C37.7595 20.2998 37.57 20.2637 37.3837 20.2895C37.1974 20.3153 37.0247 20.4014 36.8921 20.5348L36.0327 21.3941L33.6016 18.9673L34.4609 18.1036C34.5943 17.971 34.6804 17.7983 34.7062 17.612C34.732 17.4258 34.6959 17.2362 34.6036 17.0723C34.2793 16.4899 34.0244 15.8716 33.8439 15.2298C33.7923 15.0514 33.6842 14.8946 33.536 14.7827C33.3877 14.6709 33.2072 14.61 33.0215 14.6094H31.7969V11.1719H33.0215C33.2085 11.1719 33.3904 11.1109 33.5396 10.9981C33.6888 10.8854 33.7971 10.727 33.8482 10.5471C34.0287 9.90543 34.2837 9.28706 34.6079 8.70461C34.7002 8.54078 34.7363 8.3512 34.7105 8.16492C34.6847 7.97865 34.5986 7.80597 34.4652 7.67336L33.6059 6.81398L36.0327 4.38281L36.8921 5.24648C37.0247 5.37982 37.1974 5.46597 37.3837 5.49174C37.57 5.51751 37.7595 5.48147 37.9234 5.38914C38.5056 5.06518 39.1237 4.81023 39.765 4.62945C39.9451 4.57856 40.1036 4.47028 40.2165 4.32106C40.3294 4.17185 40.3906 3.98986 40.3906 3.80273V2.57812H43.8281V3.80273C43.8282 3.98986 43.8893 4.17185 44.0022 4.32106C44.1151 4.47028 44.2737 4.57856 44.4538 4.62945C45.0951 4.81023 45.7131 5.06518 46.2954 5.38914C46.4592 5.48147 46.6488 5.51751 46.8351 5.49174C47.0214 5.46597 47.194 5.37982 47.3266 5.24648L48.186 4.38281L50.6172 6.81398L49.7578 7.67336C49.6245 7.80597 49.5383 7.97865 49.5126 8.16492C49.4868 8.3512 49.5228 8.54078 49.6152 8.70461C49.9394 9.28706 50.1943 9.90543 50.3748 10.5471C50.4259 10.727 50.5342 10.8854 50.6834 10.9981C50.8326 11.1109 51.0146 11.1719 51.2016 11.1719H52.4219V14.6094Z" fill="#FF0000"/>
<path d="M43.8281 11.1719H45.5469C45.5469 10.4881 45.2753 9.83236 44.7918 9.34887C44.3083 8.86537 43.6525 8.59375 42.9688 8.59375V7.73438H41.25V8.59375C40.5662 8.59375 39.9105 8.86537 39.427 9.34887C38.9435 9.83236 38.6719 10.4881 38.6719 11.1719C38.6719 11.8556 38.9435 12.5114 39.427 12.9949C39.9105 13.4784 40.5662 13.75 41.25 13.75V15.4688C41.0221 15.4688 40.8035 15.3782 40.6423 15.217C40.4812 15.0559 40.3906 14.8373 40.3906 14.6094H38.6719C38.6719 15.2931 38.9435 15.9489 39.427 16.4324C39.9105 16.9159 40.5662 17.1875 41.25 17.1875V18.0469H42.9688V17.1875C43.6525 17.1875 44.3083 16.9159 44.7918 16.4324C45.2753 15.9489 45.5469 15.2931 45.5469 14.6094C45.5469 13.9256 45.2753 13.2699 44.7918 12.7864C44.3083 12.3029 43.6525 12.0312 42.9688 12.0312V10.3125C43.1967 10.3125 43.4153 10.403 43.5764 10.5642C43.7376 10.7254 43.8281 10.944 43.8281 11.1719ZM43.8281 14.6094C43.8281 14.8373 43.7376 15.0559 43.5764 15.217C43.4153 15.3782 43.1967 15.4688 42.9688 15.4688V13.75C43.1967 13.75 43.4153 13.8405 43.5764 14.0017C43.7376 14.1629 43.8281 14.3815 43.8281 14.6094ZM41.25 12.0312C41.0221 12.0312 40.8035 11.9407 40.6423 11.7795C40.4812 11.6184 40.3906 11.3998 40.3906 11.1719C40.3906 10.944 40.4812 10.7254 40.6423 10.5642C40.8035 10.403 41.0221 10.3125 41.25 10.3125V12.0312Z" fill="#FF0000"/>
<path d="M42.1094 5.15625C40.5797 5.15625 39.0843 5.60986 37.8124 6.45973C36.5405 7.30959 35.5491 8.51754 34.9637 9.93081C34.3784 11.3441 34.2252 12.8992 34.5236 14.3995C34.822 15.8998 35.5587 17.278 36.6404 18.3597C37.722 19.4413 39.1002 20.178 40.6005 20.4764C42.1008 20.7748 43.6559 20.6217 45.0692 20.0363C46.4825 19.4509 47.6904 18.4595 48.5403 17.1876C49.3901 15.9157 49.8438 14.4203 49.8438 12.8906C49.8415 10.84 49.0259 8.87409 47.5759 7.42411C46.1259 5.97412 44.16 5.15852 42.1094 5.15625ZM42.1094 18.9062C40.9196 18.9062 39.7565 18.5534 38.7673 17.8924C37.778 17.2314 37.007 16.2919 36.5517 15.1927C36.0964 14.0935 35.9772 12.884 36.2093 11.717C36.4415 10.5501 37.0144 9.47824 37.8557 8.63694C38.697 7.79564 39.7689 7.2227 40.9358 6.99059C42.1027 6.75847 43.3122 6.8776 44.4115 7.33291C45.5107 7.78822 46.4502 8.55926 47.1112 9.54852C47.7722 10.5378 48.125 11.7008 48.125 12.8906C48.1232 14.4855 47.4888 16.0146 46.3611 17.1423C45.2333 18.2701 43.7043 18.9044 42.1094 18.9062Z" fill="#FF0000"/>
<path d="M53.2812 26.6406H30.9375C30.7096 26.6406 30.491 26.7312 30.3298 26.8923C30.1687 27.0535 30.0781 27.2721 30.0781 27.5V30.9375C30.0781 31.1654 30.1687 31.384 30.3298 31.5452C30.491 31.7063 30.7096 31.7969 30.9375 31.7969H53.2812C53.5092 31.7969 53.7278 31.7063 53.8889 31.5452C54.0501 31.384 54.1406 31.1654 54.1406 30.9375V27.5C54.1406 27.2721 54.0501 27.0535 53.8889 26.8923C53.7278 26.7312 53.5092 26.6406 53.2812 26.6406ZM52.4219 30.0781H31.7969V28.3594H52.4219V30.0781Z" fill="#FF0000"/>
</g>
<defs>
<clipPath id="clip0_3199_9423">
<rect width="55" height="55" fill="white"/>
</clipPath>
</defs>
</svg>
