<svg width="67" height="67" viewBox="0 0 67 67" fill="none" xmlns="http://www.w3.org/2000/svg">
<path d="M31.1402 39.263C30.6297 39.774 30.6297 40.6021 31.1402 41.1137C31.6514 41.6247 32.4801 41.6247 32.9907 41.1137C33.6322 40.4728 34.6763 40.4728 35.3171 41.1137C35.8289 41.6247 36.657 41.6247 37.1683 41.1137C37.6793 40.603 37.6793 39.7744 37.1683 39.263C35.5062 37.6011 32.8021 37.6011 31.1402 39.263Z" fill="#2BB25C"/>
<path d="M28.1121 36.2346C27.601 36.745 27.601 37.5737 28.1121 38.0851C28.6233 38.5962 29.4513 38.5962 29.9626 38.0851C32.2788 35.7682 36.0289 35.7682 38.3459 38.0851C38.857 38.5962 39.6849 38.5962 40.1963 38.0851C40.7077 37.574 40.7075 36.7452 40.1963 36.2346C36.8576 32.8947 31.4521 32.8942 28.1121 36.2346Z" fill="#2BB25C"/>
<path d="M24.8744 32.9972C24.3639 33.5083 24.3639 34.337 24.8744 34.8476C25.3857 35.3588 26.2144 35.3588 26.7255 34.8476C30.8309 30.7422 37.4767 30.7417 41.5827 34.8476C42.0945 35.3588 42.9225 35.3588 43.4338 34.8476C43.9449 34.3372 43.9449 33.5083 43.4338 32.9972C38.3049 27.8681 30.0041 27.8681 24.8744 32.9972Z" fill="#2BB25C"/>
<path d="M46.5668 29.8642C39.7221 23.0196 28.5865 23.0202 21.7418 29.8642C21.2313 30.3753 21.2313 31.2034 21.7418 31.7146C22.2529 32.2258 23.0816 32.2258 23.5929 31.7146C29.4164 25.8911 38.8923 25.8911 44.7158 31.7146C45.227 32.2258 46.0558 32.2258 46.567 31.7146C47.0781 31.2035 47.078 30.3754 46.5668 29.8642Z" fill="#2BB25C"/>
<path d="M55.3123 49.7496L50.5117 54.5494L48.5743 52.612C48.0632 52.1017 47.2343 52.1017 46.7232 52.612C46.213 53.1232 46.213 53.9519 46.7232 54.4632L49.5865 57.3257C50.0977 57.8367 50.9258 57.8367 51.4372 57.3257L57.1629 51.5998C57.674 51.0888 57.674 50.2607 57.1629 49.7493C56.6516 49.2383 55.8234 49.2386 55.3123 49.7496Z" fill="#2BB25C"/>
<path d="M49.8574 48.5488C50.58 48.5488 51.166 47.9627 51.166 47.2402C51.166 46.5178 50.58 45.9316 49.8574 45.9316H47.2402C46.5175 45.9316 45.9316 46.5178 45.9316 47.2402C45.9316 47.9627 46.5175 48.5488 47.2402 48.5488H49.8574Z" fill="#2BB25C"/>
<path d="M53.7832 48.5488C54.5059 48.5488 55.0918 47.963 55.0918 47.2402C55.0918 46.5175 54.5059 45.9316 53.7832 45.9316C53.0605 45.9316 52.4746 46.5175 52.4746 47.2402C52.4746 47.963 53.0605 48.5488 53.7832 48.5488Z" fill="#2BB25C"/>
<path d="M60.3262 18.4512C61.0489 18.4512 61.6348 17.8653 61.6348 17.1426C61.6348 16.4199 61.0489 15.834 60.3262 15.834C59.6035 15.834 59.0176 16.4199 59.0176 17.1426C59.0176 17.8653 59.6035 18.4512 60.3262 18.4512Z" fill="#2BB25C"/>
<path d="M45.9316 5.36523C46.6544 5.36523 47.2402 4.77936 47.2402 4.05664C47.2402 3.33392 46.6544 2.74805 45.9316 2.74805C45.2089 2.74805 44.623 3.33392 44.623 4.05664C44.623 4.77936 45.2089 5.36523 45.9316 5.36523Z" fill="#2BB25C"/>
<path d="M17.1425 7.98242C17.8652 7.98242 18.451 7.39654 18.451 6.67383C18.451 5.95111 17.8652 5.36523 17.1425 5.36523C16.4197 5.36523 15.8339 5.95111 15.8339 6.67383C15.8339 7.39654 16.4197 7.98242 17.1425 7.98242Z" fill="#2BB25C"/>
<path d="M21.0682 60.3262C21.7909 60.3262 22.3768 59.7403 22.3768 59.0176C22.3768 58.2949 21.7909 57.709 21.0682 57.709C20.3455 57.709 19.7596 58.2949 19.7596 59.0176C19.7596 59.7403 20.3455 60.3262 21.0682 60.3262Z" fill="#2BB25C"/>
<path d="M5.36498 44.623C6.08769 44.623 6.67357 44.0372 6.67357 43.3145C6.67357 42.5917 6.08769 42.0059 5.36498 42.0059C4.64226 42.0059 4.05638 42.5917 4.05638 43.3145C4.05638 44.0372 4.64226 44.623 5.36498 44.623Z" fill="#2BB25C"/>
<path d="M61.6267 43.7191C61.6267 43.0943 61.1851 42.5568 60.5722 42.4353L58.6572 42.0559C59.7639 39.1191 60.3262 36.0283 60.3262 32.8458C60.3262 18.4141 48.5852 6.67383 34.1542 6.67383C19.7231 6.67383 7.98216 18.4141 7.98216 32.8458C7.98216 47.2769 19.7231 59.0178 34.1542 59.0178C37.0302 59.0178 39.8454 58.5559 42.5392 57.644C43.6038 59.444 45.4056 61.0811 48.1276 63.8592C48.3737 64.1104 48.7104 64.2522 49.0626 64.2522H53.6573C54.0144 64.2522 54.3557 64.1066 54.603 63.8484C58.3256 59.9596 60.1537 58.4881 60.9964 55.8851C61.7638 53.5136 61.6267 50.4001 61.6267 43.7191ZM10.5993 32.8458C10.5993 19.8576 21.166 9.29115 34.1542 9.29115C47.1424 9.29102 57.709 19.8575 57.709 32.8458C57.709 35.858 57.1505 38.7774 56.0509 41.5403L51.6139 40.661C51.4466 40.6283 51.274 40.6283 51.1066 40.661L50.6862 40.7441C51.8606 38.2936 52.4746 35.61 52.4746 32.8458C52.4746 22.7438 44.2561 14.5255 34.1542 14.5255C24.0521 14.5255 15.8339 22.7439 15.8339 32.8458C15.8339 42.9478 24.0522 51.1661 34.1542 51.1661C36.5318 51.1661 38.8876 50.6998 41.0748 49.809C41.1087 52.1872 41.2187 53.8376 41.5561 55.2128C39.176 56.0007 36.6923 56.4005 34.1543 56.4005C21.166 56.4005 10.5993 45.834 10.5993 32.8458ZM42.1194 42.4353C41.506 42.5561 41.0643 43.094 41.0643 43.7191C41.0643 44.8655 41.0613 45.9382 41.0607 46.9491C38.9227 47.9961 36.5514 48.549 34.1542 48.549C25.4956 48.549 18.451 41.5044 18.451 32.8458C18.451 24.1866 25.4956 17.1427 34.1542 17.1427C42.8127 17.1427 49.8574 24.1865 49.8574 32.8458C49.8574 35.911 48.9795 38.8604 47.3161 41.4091L42.1194 42.4353ZM58.5064 55.0786C57.9045 56.938 56.4754 58.1335 53.1003 61.635H49.6109C46.3292 58.3028 44.8773 57.0364 44.2467 55.1144C43.6307 53.237 43.6735 50.407 43.6813 44.7945L51.36 43.2789L59.0103 44.7939C59.0195 50.393 59.0968 53.2549 58.5064 55.0786Z" fill="#2BB25C"/>
<path d="M10.5993 51.166C8.43454 51.166 6.67357 52.927 6.67357 55.0918C6.67357 57.2566 8.43454 59.0177 10.5993 59.0177C12.7642 59.0177 14.5251 57.2566 14.5251 55.0918C14.5251 52.927 12.7642 51.166 10.5993 51.166ZM10.5993 56.4004C9.87792 56.4004 9.29076 55.8134 9.29076 55.0918C9.29076 54.3702 9.87792 53.7832 10.5993 53.7832C11.3214 53.7832 11.9079 54.3702 11.9079 55.0918C11.9079 55.8134 11.3214 56.4004 10.5993 56.4004Z" fill="#2BB25C"/>
<path d="M58.3633 11.9082C60.8885 11.9082 62.9434 9.85332 62.9434 7.32812C62.9434 4.80293 60.8885 2.74805 58.3633 2.74805C55.8381 2.74805 53.7832 4.80293 53.7832 7.32812C53.7832 9.85332 55.8381 11.9082 58.3633 11.9082ZM58.3633 5.36523C59.4456 5.36523 60.3262 6.24579 60.3262 7.32812C60.3262 8.41046 59.4456 9.29102 58.3633 9.29102C57.2809 9.29102 56.4004 8.41046 56.4004 7.32812C56.4004 6.24579 57.2809 5.36523 58.3633 5.36523Z" fill="#2BB25C"/>
<path d="M7.98216 13.2168C10.147 13.2168 11.9079 11.4558 11.9079 9.29102C11.9079 7.12621 10.147 5.36523 7.98216 5.36523C5.81736 5.36523 4.05638 7.12621 4.05638 9.29102C4.05638 11.4558 5.81736 13.2168 7.98216 13.2168ZM7.98216 7.98242C8.70424 7.98242 9.29076 8.56893 9.29076 9.29102C9.29076 10.0124 8.70424 10.5996 7.98216 10.5996C7.26074 10.5996 6.67357 10.0124 6.67357 9.29102C6.67357 8.56893 7.26074 7.98242 7.98216 7.98242Z" fill="#2BB25C"/>
</svg>
